<?xml version="1.0" encoding="utf-8"?>
<!-- Generator: Adobe Illustrator 25.0.0, SVG Export Plug-In . SVG Version: 6.00 Build 0)  -->
<svg version="1.1" id="Capa_1" xmlns="http://www.w3.org/2000/svg" xmlns:xlink="http://www.w3.org/1999/xlink" x="0px" y="0px"
	 viewBox="0 0 380.9 206.54" style="enable-background:new 0 0 380.9 206.54;" xml:space="preserve">
<style type="text/css">
	.st0{fill:none;stroke:#FF6B00;stroke-miterlimit:10;}
	.st1{fill:#EDEDED;}
	.st2{opacity:0.5;fill:url(#SVGID_3_);}
	.st3{opacity:0.5;fill:url(#SVGID_6_);}
	.st4{opacity:0.5;fill:url(#SVGID_9_);}
	.st5{opacity:0.5;fill:url(#SVGID_12_);}
	.st6{opacity:0.5;fill:url(#SVGID_15_);}
	.st7{opacity:0.5;fill:url(#SVGID_18_);}
	.st8{fill:none;stroke:#335544;stroke-miterlimit:10;}
	.st9{opacity:0.5;fill:url(#SVGID_21_);}
	.st10{opacity:0.5;fill:url(#SVGID_24_);}
	.st11{fill:#012649;}
	.st12{fill-rule:evenodd;clip-rule:evenodd;fill:#FD6B00;}
	.st13{fill-rule:evenodd;clip-rule:evenodd;fill:#012649;}
	.st14{font-family:'Montserrat-Regular';}
	.st15{font-size:18.0012px;}
	.st16{letter-spacing:1.46;}
	.st17{fill:#FB6B00;}
</style>
<g>
	<g>
		<path class="st11" d="M197.37,118.31h-11.06l-15.59-22.25h-29.11v22.25h-9.54V59.96h45.42c6.05,0,10.79,1.65,14.24,4.96
			c3.45,3.31,5.17,7.78,5.17,13.42c0,4.94-1.4,8.92-4.22,11.93c-2.6,2.79-6.18,4.57-10.74,5.32L197.37,118.31L197.37,118.31z
			 M176.05,87.28c7.37,0,11.06-2.98,11.06-8.95c0-6.39-3.98-9.59-11.93-9.59h-33.57v18.54H176.05L176.05,87.28z M220.52,118.31
			h-9.55V68.75h9.55V118.31L220.52,118.31z M281.52,81c-6.36-3.39-13.28-5.08-20.76-5.08c-10.87,0-16.3,1.96-16.3,5.88
			c0,2.31,2.04,3.82,6.12,4.51c5.57,0.48,11.14,0.99,16.7,1.53c8.01,0.81,13.71,2.26,17.1,4.35c3.77,2.31,5.65,5.83,5.65,10.56
			c0,5.32-2.35,9.43-7.04,12.33c-4.69,2.9-11.49,4.35-20.4,4.35c-12.57,0-22.62-2.9-30.15-8.7l5.17-6.85
			c6.74,4.78,15.01,7.17,24.82,7.17c5.52,0,9.79-0.71,12.81-2.14c3.02-1.42,4.53-3.32,4.53-5.68c0-2.63-1.86-4.49-5.57-5.56
			c-2.07-0.59-5.28-0.99-9.62-1.21c-6.79-0.32-10.95-0.56-12.49-0.73c-6.05-0.59-10.5-1.91-13.36-3.95
			c-2.86-2.04-4.29-5.02-4.29-8.95c0-4.73,2.29-8.48,6.88-11.24c4.59-2.77,11.02-4.15,19.29-4.15c11.03,0,19.96,2.42,26.8,7.25
			L281.52,81L281.52,81z M361.06,118.31h-12.28l-23.34-25.13l-13.93,10.14v14.99h-9.54V68.75h9.54v24.26l33.33-24.26h14.17
			L332.8,87.73L361.06,118.31z"/>
		<g>
			<g>
				<path class="st11" d="M361.06,139.03v0.55c0,2.91-1.05,5.26-3.16,7.07c-2.11,1.8-4.91,2.7-8.41,2.7c-3.16,0-5.8-0.79-7.94-2.35
					c-2.48-1.82-3.72-4.21-3.72-7.15c0-2.91,1.24-5.27,3.72-7.1c2.18-1.61,4.89-2.41,8.14-2.41c3.93,0,7.18,1.39,9.76,4.16
					l-3.26,1.63c-1.81-1.75-4.04-2.62-6.7-2.62c-2.35,0-4.28,0.6-5.8,1.8c-1.52,1.2-2.28,2.71-2.28,4.54c0,1.88,0.74,3.41,2.22,4.59
					c1.48,1.18,3.44,1.77,5.86,1.77c3.64,0,6.05-1.34,7.25-4.01h-8v-3.17H361.06z"/>
				<polygon class="st11" points="332.83,148.83 327.66,148.83 315.59,133.92 315.59,148.83 312.12,148.83 312.12,130.95 
					317.29,130.95 329.36,145.87 329.36,130.95 332.83,130.95 				"/>
				<rect x="302.59" y="130.95" class="st11" width="3.46" height="17.88"/>
				<polygon class="st11" points="299.13,134.12 290.64,134.12 290.64,148.83 287.17,148.83 287.17,134.12 278.69,134.12 
					278.69,130.95 299.13,130.95 				"/>
				<polygon class="st11" points="280.41,148.83 263.23,148.83 263.23,130.95 266.7,130.95 266.7,145.66 280.41,145.66 				"/>
				<path class="st11" d="M257.37,142.96c0,1.88-0.93,3.42-2.8,4.61c-1.87,1.19-4.37,1.79-7.51,1.79c-3.16,0-5.67-0.6-7.54-1.79
					c-1.87-1.19-2.8-2.73-2.8-4.61v-12.01h3.46v11.31c0,2.64,2.29,3.95,6.87,3.95c4.56,0,6.84-1.32,6.84-3.95v-11.31h3.46V142.96z"
					/>
				<path class="st11" d="M231.56,135.37c-2.31-1.22-4.82-1.83-7.54-1.83c-3.95,0-5.92,0.71-5.92,2.12c0,0.83,0.74,1.38,2.22,1.63
					c2.02,0.17,4.04,0.36,6.06,0.55c2.91,0.29,4.98,0.81,6.21,1.57c1.37,0.83,2.05,2.1,2.05,3.81c0,1.92-0.85,3.4-2.56,4.45
					c-1.7,1.05-4.17,1.57-7.41,1.57c-4.56,0-8.21-1.05-10.94-3.14l1.88-2.47c2.45,1.73,5.45,2.59,9.01,2.59c2,0,3.55-0.26,4.65-0.77
					c1.1-0.51,1.65-1.2,1.65-2.05c0-0.95-0.67-1.62-2.02-2.01c-0.75-0.21-1.92-0.36-3.49-0.44c-2.46-0.12-3.97-0.2-4.53-0.26
					c-2.19-0.21-3.81-0.69-4.85-1.43c-1.04-0.74-1.56-1.81-1.56-3.23c0-1.71,0.83-3.06,2.5-4.06c1.67-1,4-1.5,7-1.5
					c4,0,7.25,0.87,9.73,2.62L231.56,135.37z"/>
				<polygon class="st11" points="209.42,148.83 204.25,148.83 192.18,133.92 192.18,148.83 188.71,148.83 188.71,130.95 
					193.88,130.95 205.95,145.87 205.95,130.95 209.42,130.95 				"/>
				<path class="st11" d="M180.11,139.85c0-1.84-0.75-3.36-2.25-4.55c-1.5-1.19-3.44-1.79-5.8-1.79c-2.39,0-4.34,0.6-5.85,1.8
					c-1.51,1.2-2.27,2.71-2.27,4.54c0,1.9,0.74,3.44,2.22,4.61c1.48,1.17,3.45,1.76,5.89,1.76c2.43,0,4.38-0.59,5.85-1.76
					C179.37,143.28,180.11,141.75,180.11,139.85L180.11,139.85z M183.72,139.85c0,2.93-1.24,5.31-3.72,7.15
					c-2.12,1.57-4.76,2.35-7.94,2.35c-3.18,0-5.83-0.79-7.97-2.35c-2.48-1.82-3.72-4.21-3.72-7.15c0-2.91,1.25-5.27,3.75-7.1
					c2.19-1.61,4.84-2.41,7.94-2.41c3.08,0,5.72,0.8,7.91,2.41C182.47,134.59,183.72,136.96,183.72,139.85z"/>
				<path class="st11" d="M157.16,132.58l-3.15,1.13c-2.12-2.27-5.08-3.4-8.89-3.4c-2.89,0-5.24,0.75-7.06,2.24
					c-1.82,1.49-2.73,3.39-2.73,5.7c0,2.38,0.9,4.31,2.7,5.77c1.8,1.46,4.23,2.2,7.29,2.2c3.7,0,6.6-1.15,8.72-3.46l2.97,1.66
					c-1.5,1.76-3.2,3.04-5.1,3.82c-1.9,0.78-4.16,1.18-6.8,1.18c-3.7,0-6.77-0.93-9.21-2.79c-2.79-2.13-4.19-4.93-4.19-8.37
					c0-3.39,1.41-6.16,4.24-8.32c2.46-1.88,5.52-2.82,9.15-2.82C150.35,127.11,154.36,128.93,157.16,132.58z"/>
			</g>
		</g>
		<path class="st12" d="M114.98,17.93c-1.49-0.96-2.91-4.22-3.6-3.77c-0.82,0.03,1.28,6.01,0.64,5.86c-0.3,0.63-2.4-1.98-3.57-3.05
			c-0.49,1.25-0.91,2.42-1.33,3.74c1.39,0.49,4.36,0.87,4.21,1.3c0.03,1.11-0.08,1.54-0.58,2.25c-1.47,0.3-2.76,1.42-2.93,2.96
			c-2.17-1.17-4.63-1.75-7.62,0.43c-1.06,0.87-2.23-2.3-6.09-0.69c-0.43,7.39-0.89,15.02-1.32,22.41c-0.99,1.02-3.51-0.42-4.09,1.61
			c-0.13,1.54,3.55,1.79,3.43,2.54c-0.11,1.46-0.73,2.61-0.92,3.43c-1.02-0.11-1.63,0.06-2.21,1.15c-2.99-0.91-3.86,0.51-4.89,2.38
			c-3.47-0.29-4.82,0.58-5.22,2.48c-0.4,1.46,1.34,2.61,7.07,4.27c-2.69,6.79-5.38,13.59-8.07,20.38
			c-2.44,4.12-5.57,7.53-10.19,9.39c-6.07,1.98-8.65,6.89-10.25,12.62c-5.39-1.38-8.37,1.37-11.38,4.51
			c-0.15,0.15-0.3,0.31-0.44,0.47c-1.13,0.05-2.05,1.12-2.11,1.66c-0.06,0.53,0.74,0.52,1.66,0.62c0.14,0.01,0.17,0.21,0.13,0.52
			c-0.14,1.12-1.17,3.67-1.59,3.86c-1.7,0.72-3.41-0.96-5.78,2.88c-0.71,3.2,1.03,3.93,3.51,5.65c11.69,8.11,30.14,15.95,44.1,18.73
			c2.96,0.59,4.7,1.34,6.51-1.4c1.11-4.37-1.28-4.43-1.95-6.16c-0.15-0.44,0.97-2.95,1.67-3.83c0.2-0.25,0.36-0.36,0.46-0.27
			c0.71,0.59,1.26,1.17,1.6,0.76c0.34-0.41,0.48-1.82-0.27-2.67c0.01-0.21,0.02-0.43,0.03-0.64c0.17-4.35,0.07-8.4-4.66-11.32
			c3.01-5.14,4.75-10.4,1.96-16.14c-1.87-4.62-1.59-9.24-0.32-13.86c3.02-6.65,6.04-13.3,9.06-19.96c5.17,2.97,7.21,3.42,7.98,2.12
			c1.09-1.61,0.78-3.19-1.84-5.48c0.64-2.05,1.05-3.65-1.68-5.17c0.38-1.17,0.07-1.73-0.71-2.39c0.45-0.71,0.85-1.95,1.82-3.05
			c0.46-0.61,3.2,1.87,4.21,0.71c1.06-1.83-1.73-2.64-1.68-4.06c5.02-5.44,10.19-11.07,15.21-16.51c-1.53-3.89-4.61-2.53-4.72-3.9
			c-0.5-3.67-2.63-5.03-4.98-5.78c0.99-1.19,0.91-2.89,0.1-4.16c0.16-0.85,0.4-1.23,1.22-1.98c0.21-0.4,2.54,1.47,3.86,2.13
			c0.66-1.22,1.22-2.34,1.77-3.56c-1.57-0.1-4.91,0.21-4.67-0.45c-0.55-0.36,5.22-3,4.67-3.61
			C120.03,17.09,116.71,18.33,114.98,17.93z"/>
		<rect x="19.84" y="160.4" class="st13" width="341.22" height="4.05"/>
		<g>
			<text transform="matrix(1.3731 0 0 1 132.4652 187.9102)" class="st11 st14 st15 st16">GLOBAL GROUP</text>
		</g>
	</g>
</g>
</svg>
